/* XPM */
static char *_f3ed7b13a5342e69c4bf1bae92e3c3fSBmVnfReppntFEL0[] = {
/* columns rows colors chars-per-pixel */
"32 32 201 2 ",
"   c #6C583D",
".  c #705832",
"X  c #71553D",
"o  c #5B425F",
"O  c #5C425F",
"+  c #6C5744",
"@  c #695940",
"#  c #6A5840",
"$  c #6A5842",
"%  c #6C5648",
"&  c #6D5648",
"*  c #6C5649",
"=  c #705446",
"-  c #705448",
";  c #71524D",
":  c #73514F",
">  c #745052",
",  c #7D6C5C",
"<  c #5B4260",
"1  c #5C4160",
"2  c #5E4160",
"3  c #7D6A64",
"4  c #7E6B65",
"5  c #7D6A66",
"6  c #7F6A67",
"7  c #7E6B67",
"8  c #7E6968",
"9  c #8E654F",
"0  c #816C4D",
"q  c #8F6451",
"w  c #8E6551",
"e  c #8C6653",
"r  c #886756",
"t  c #8A6656",
"y  c #8B6656",
"u  c #876853",
"i  c #806C53",
"p  c #816B56",
"a  c #876758",
"s  c #85675C",
"d  c #87675C",
"f  c #84675F",
"g  c #85675F",
"h  c #8E635A",
"j  c #8A6658",
"k  c #88665A",
"l  c #8B675B",
"z  c #8E635C",
"x  c #8B655C",
"c  c #88665D",
"v  c #88655F",
"b  c #8A655F",
"n  c #836958",
"m  c #85685A",
"M  c #81695D",
"N  c #806A5C",
"B  c #816B5D",
"V  c #83685F",
"C  c #836763",
"Z  c #856661",
"A  c #876661",
"S  c #876563",
"D  c #856663",
"F  c #846763",
"G  c #806665",
"H  c #816766",
"J  c #876564",
"K  c #846664",
"L  c #886561",
"P  c #8B6660",
"I  c #886563",
"U  c #856864",
"Y  c #856568",
"T  c #85656A",
"R  c #84656B",
"E  c #83656F",
"W  c #85646D",
"Q  c #88626F",
"!  c #806673",
"~  c #806574",
"^  c #886271",
"/  c #83627D",
"(  c #83627F",
")  c #BB9F60",
"_  c #BD9F61",
"`  c #BD9E68",
"'  c #B99F6C",
"]  c #B99F6E",
"[  c #BA9E6E",
"{  c #AE8D7A",
"}  c #B28B7A",
"|  c #B18C7A",
" . c #BA9D71",
".. c #B99E71",
"X. c #BA9F72",
"o. c #BE9B75",
"O. c #BA9C7A",
"+. c #B7A06C",
"@. c #B5A071",
"#. c #B3C372",
"$. c #CCC17F",
"%. c #C0D470",
"&. c #BD9886",
"*. c #CCBF88",
"=. c #DAB986",
"-. c #DCB884",
";. c #D6BA8A",
":. c #D2BC8B",
">. c #D8BA88",
",. c #D9B791",
"<. c #DAB791",
"1. c #D6B892",
"2. c #D2BA94",
"3. c #D5B994",
"4. c #CBC183",
"5. c #CEC083",
"6. c #E7D398",
"7. c #E8D19D",
"8. c #EACDA5",
"9. c #EECDA4",
"0. c #EECCA7",
"q. c #E6CFAF",
"w. c #E8CEA9",
"e. c #EDCCA9",
"r. c #E8CDAF",
"t. c #E9CFAE",
"y. c #E3D3A0",
"u. c #E3D3A2",
"i. c #E6D1A2",
"p. c #E3D2A7",
"a. c #E3D1A9",
"s. c #E7CEB0",
"d. c #EACBB6",
"f. c #E8CBB9",
"g. c #FCEFB8",
"h. c #FBEFBF",
"j. c #FFECBD",
"k. c #FFEDBD",
"l. c #FEEEBD",
"z. c #FCEEBF",
"x. c #FBF1B3",
"c. c #FAF2B3",
"v. c #F8F2B6",
"b. c #F5F2BB",
"n. c #F7F2BB",
"m. c #F5F2BD",
"M. c #F7F1BF",
"N. c #F4F2BF",
"B. c #F8F0BF",
"V. c #FAEFC1",
"C. c #FFECC1",
"Z. c #FCEEC1",
"A. c #FCEDC2",
"S. c #FCEFC3",
"D. c #FBEBC7",
"F. c #F8EFC4",
"G. c #FAEEC4",
"H. c #FBEDC6",
"J. c #FAEEC6",
"K. c #F7EFC8",
"L. c #FFEBC8",
"P. c #FFE8CB",
"I. c #FFEACB",
"U. c #FAECC9",
"Y. c #FAEEC8",
"T. c #FBEDCA",
"R. c #F8EECA",
"E. c #FCECC8",
"W. c #FFE8CD",
"Q. c #FFE9CF",
"!. c #FEEACF",
"~. c #FBECCD",
"^. c #FAECCF",
"/. c #F3F3C1",
"(. c #F5F1C1",
"). c #F7F1C1",
"_. c #F4F2C1",
"`. c #F5F1C2",
"'. c #F7F0C2",
"]. c #F4F2C2",
"[. c #F5F3C2",
"{. c #F7F0C4",
"}. c #F6F2C5",
"|. c #F5F0C6",
" X c #F8F0C1",
".X c #F8F0C2",
"XX c #F8F2C2",
"oX c #F5F0C8",
"OX c #FFE6D1",
"+X c #FFE7D6",
"@X c #FFE8D1",
"#X c #FFE9D1",
"$X c #FFEBD0",
"%X c #FEEAD1",
"&X c #FFE9D2",
"*X c #FEEAD2",
"=X c #FBEBD4",
"-X c #FFE9D4",
";X c #FFE8D6",
":X c #FCECD5",
">X c #FFE6DB",
/* pixels */
"%.%.%.%.%.%.%.%.%.%.%.%.%.%.%.%.%.%.%.%.%.%.%.%.%.%.%.%.%.%.%.%.",
"%.%.%.%.%.%.%.%.%.%.%.%.%.%.%.%.%.%.%.%.%.%.%.%.%.%.%.%.%.%.%.%.",
"%.%.%.%.%.%.%.%.%.%.%.%.%.%.%.%.%.%.%.%.%.%.%.%.%.%.%.%.%.%.%.%.",
"%.%.%.%.%.%.%.%.%.%.%.%.%.%.%.%.%.%.%.%.%.%.%.%.%.%.%.%.%.%.%.%.",
"%.%.%.%.%.%.%.%.%.%.%.%.%.%.%.%.%.%.%.%.%.%.%.%.%.%.%.%.%.%.%.%.",
"%.%.%.%.%.%.%.%.%.%.%.%.%.%.%.%.%.%.%.%.%.%.%.%.%.%.%.%.%.%.%.%.",
"%.%.%.%.%.%.%.%.%.%.%.%.%.%.G S S S S G %.%.%.%.%.%.%.%.%.%.%.%.",
"%.%.%.%.%.%.%.%.%.%.%.%.%.%.v z h h h v %.%.%.%.%.%.%.%.%.%.%.%.",
"%.%.%.%.%.%.%.%.%.%.%.%., p { } | | } { p , %.%.%.%.%.%.%.%.%.%.",
"%.%.%.%.%.%.%.%.%.%.5 M -X%XOXOX!.I.I.!.!.+XC 8 %.%.%.%.%.%.%.%.",
"%.%.%.%.%.%.%.%.%.%.M p -X-X+X%XR.F.F.R.%X>XK T %.%.%.%.%.%.%.%.",
"%.%.%.%.%.%.%.%.5 M %X%X+ & & # K.M.M.XX  = ; > K 5 %.%.%.%.%.%.",
"%.%.%.%.%.%.%.%.S a R.R.# & & # K.M.v.g.. X - ; L S %.%.%.%.%.%.",
"%.%.%.%.%.%.%.%.g u F.|.^.:X=X^.|.b.4.5.:.2.!.-Xv S %.%.%.%.%.%.",
"%.%.%.%.%.%.%.%.n 0 F._.|.oXK.|._.b.4.$.5.*.XX^.k S %.%.%.%.%.%.",
"%.%.%.%.%.%.5 M !.F._._././._._._.M.v.x.x.v.M.R.r S %.%.%.%.%.%.",
"%.%.%.%.%.%.M i R._._./._._._._._.M.M.b.b.M.M.R.r S %.%.%.%.%.%.",
"%.%.%.%.5 M %XD.|._././._._.XX_._._._._._._._.E.r S %.%.%.%.%.%.",
"%.%.%.%.U k I.S._._._._._._.j.j.XX_._._._._.XXI.r L %.%.%.%.%.%.",
"%.%.%.%.S k s.p.V.M.B.M.B.h.@.@.V._._._._.XXa.s.k S %.%.%.%.%.%.",
"%.%.%.%.5 g d.t.S.j.j.j.j.j.X.X.S.V.V.V.V.S.t.d.g 5 %.%.%.%.%.%.",
"%.%.%.%.%.%.S r O.X.[ +.[ [ 0.8.i.u.u.u.p.q.a g %.%.%.%.%.%.%.%.",
"%.%.%.%.%.#.~ T &.o.` ) _ ` 0.e.7.6.6.7.w.f.T ! %.%.%.%.%.%.%.%.",
"%.%.%.%.%.#.#.2 W k ,.=.-.,.g g 3.;.>.1.m E 2 #.%.%.%.%.%.%.%.%.",
"%.%.%.%.%.%.#.#.#.O v 9 q L 2 < L q q L o #.#.#.%.%.%.%.%.%.%.%.",
"%.%.%.%.%.%.#.#.#.#./ Q Q / #.#./ ^ Q / #.#.#.%.%.%.%.%.%.%.%.%.",
"%.%.%.%.%.%.#.#.#.#.#.#.#.#.#.#.#.#.#.#.#.#.#.%.%.%.%.%.%.%.%.%.",
"%.%.%.%.%.%.%.#.#.#.#.#.#.#.#.#.#.#.#.#.#.#.%.%.%.%.%.%.%.%.%.%.",
"%.%.%.%.%.%.%.%.%.%.%.%.%.%.%.%.%.%.%.%.%.%.%.%.%.%.%.%.%.%.%.%.",
"%.%.%.%.%.%.%.%.%.%.%.%.%.%.%.%.%.%.%.%.%.%.%.%.%.%.%.%.%.%.%.%.",
"%.%.%.%.%.%.%.%.%.%.%.%.%.%.%.%.%.%.%.%.%.%.%.%.%.%.%.%.%.%.%.%.",
"%.%.%.%.%.%.%.%.%.%.%.%.%.%.%.%.%.%.%.%.%.%.%.%.%.%.%.%.%.%.%.%."
};
