/* XPM */
static char *_bc058436dbb41c7d3d666fb6371e357pw6gfoxshu0BDHfx[] = {
/* columns rows colors chars-per-pixel */
"32 32 208 2 ",
"   c #7E6C56",
".  c #7C6A5C",
"X  c #967C3F",
"o  c #876B44",
"O  c #876B46",
"+  c #846D44",
"@  c #8A6A44",
"#  c #8A6946",
"$  c #856B48",
"%  c #87684B",
"&  c #876A4C",
"*  c #836C4C",
"=  c #806D4F",
"-  c #88694A",
";  c #8B684A",
":  c #8A684C",
">  c #8F7D4D",
",  c #957D41",
"<  c #957C43",
"1  c #967C43",
"2  c #967B44",
"3  c #917C45",
"4  c #927D44",
"5  c #937D44",
"6  c #937C46",
"7  c #927D46",
"8  c #937E47",
"9  c #957C44",
"0  c #957C46",
"q  c #967D47",
"w  c #97784A",
"e  c #957B4A",
"r  c #927D48",
"t  c #927C4A",
"y  c #927C4B",
"u  c #927B4F",
"i  c #917C4D",
"p  c #997948",
"a  c #987A48",
"s  c #99784F",
"d  c #846A53",
"f  c #816B56",
"g  c #816A5A",
"h  c #8F7C51",
"j  c #8E7D51",
"k  c #8F7C52",
"l  c #8E7A57",
"z  c #8C7D56",
"x  c #8F7B58",
"c  c #8E7B5A",
"v  c #8A7C59",
"b  c #8B7D5A",
"n  c #8B7C5B",
"m  c #8E7C58",
"M  c #8C7C5A",
"N  c #8C7C5B",
"B  c #8C7B5F",
"V  c #8A7C5F",
"C  c #8B7C5F",
"Z  c #997751",
"A  c #927D50",
"S  c #987851",
"D  c #907C59",
"F  c #8A7C61",
"G  c #887C62",
"H  c #897D63",
"J  c #AF9642",
"K  c #AF9646",
"L  c #AD954B",
"P  c #AF954A",
"I  c #AF954B",
"U  c #AF944D",
"Y  c #AD954F",
"T  c #B0964B",
"R  c #AD9451",
"E  c #AC9454",
"W  c #AA945A",
"Q  c #AC9458",
"!  c #BEA853",
"~  c #BFA953",
"^  c #BEAA53",
"/  c #BFA954",
"(  c #BFA956",
")  c #BFA75D",
"_  c #BFA75F",
"`  c #BFA858",
"'  c #BEA958",
"]  c #BFA85A",
"[  c #BFA85C",
"{  c #BEA85D",
"}  c #BEA85F",
"|  c #918167",
" . c #928366",
".. c #958264",
"X. c #958166",
"o. c #938169",
"O. c #928269",
"+. c #92826B",
"@. c #958168",
"#. c #92816D",
"$. c #93836C",
"%. c #BEA761",
"&. c #BFA761",
"*. c #BBA76A",
"=. c #BCA66A",
"-. c #B7A67B",
";. c #C1A854",
":. c #C0AA55",
">. c #C1A856",
",. c #C0A65C",
"<. c #C1A75D",
"1. c #C1A858",
"2. c #C2A959",
"3. c #C1A661",
"4. c #D5BF73",
"5. c #D3BE7B",
"6. c #D5BE78",
"7. c #D6BE78",
"8. c #D6BD7A",
"9. c #D5BE7A",
"0. c #D6BF7B",
"q. c #B3C372",
"w. c #D5C16B",
"e. c #D5C06F",
"r. c #D5C071",
"t. c #D7C070",
"y. c #C0D470",
"u. c #B4A683",
"i. c #D2BE81",
"p. c #D2BD84",
"a. c #E8CFA6",
"s. c #EACEA7",
"d. c #E7CFA9",
"f. c #EBCDA9",
"g. c #E8CEA9",
"h. c #EACEA9",
"j. c #E9CFAA",
"k. c #EBCCAF",
"l. c #E1D2A7",
"z. c #E3D2A6",
"x. c #E4D1A6",
"c. c #E7D0A6",
"v. c #E6D1A6",
"b. c #E4D1A9",
"n. c #E6D0A9",
"m. c #E2D0AC",
"M. c #EDCBB0",
"N. c #E8CDB2",
"B. c #E1D1B0",
"V. c #ECE9BE",
"C. c #ECE8C2",
"Z. c #ECE8CB",
"A. c #FBEEC1",
"S. c #FAEFC1",
"D. c #FAEFC2",
"F. c #FCEEC1",
"G. c #FCEDC2",
"H. c #F8EFC4",
"J. c #FAEEC4",
"K. c #FBEEC4",
"L. c #F8EFC6",
"P. c #FDEEC5",
"I. c #F7EFCA",
"U. c #F7EFCB",
"Y. c #FFEBC8",
"T. c #FEEAC9",
"R. c #FFEACA",
"E. c #FEEBCA",
"W. c #FFEACB",
"Q. c #FEEBCB",
"!. c #FAECC9",
"~. c #F8EFC8",
"^. c #FAEDCA",
"/. c #F8EDCD",
"(. c #F8EDCF",
"). c #F5F1C1",
"_. c #F7F1C1",
"`. c #F4F2C1",
"'. c #F7F0C2",
"]. c #F4F2C2",
"[. c #F4F1C4",
"{. c #F7F0C4",
"}. c #F4F1C6",
"|. c #F8F0C2",
" X c #F8F1C3",
".X c #F9F0C5",
"XX c #F3F1CB",
"oX c #F4F1C8",
"OX c #F6F0CE",
"+X c #F7F5CF",
"@X c #F9F6CD",
"#X c #FFEEDF",
"$X c #F7F3D6",
"%X c #F8F6D0",
"&X c #F8F3D6",
"*X c #F8F4D9",
"=X c #FDF0DD",
"-X c #FFF0DC",
";X c #FDF2DC",
":X c #FEF2DC",
">X c #FDEFE2",
",X c #FFEEE4",
"<X c #FCEFE9",
"1X c #FAF1E2",
"2X c #FAF0E4",
"3X c #F9F1E6",
"4X c #F8F1E7",
"5X c #F8F2E6",
/* pixels */
"y.y.y.y.y.y.y.y.y.y.y.y.y.y.y.y.y.y.y.y.y.y.y.y.y.y.y.y.y.y.y.y.",
"y.y.y.y.y.y.y.y.y.y.y.y.y.y.y.y.y.y.y.y.y.y.y.y.y.y.y.y.y.y.y.y.",
"y.y.y.y.y.y.y.y.y.y.y.y.y.y.y.y.y.y.y.y.y.y.y.y.y.y.y.y.y.y.y.y.",
"y.y.y.y.y.y.y.y.y.y.y.y.y.y.y.y.y.y.y.y.y.y.y.y.y.y.y.y.y.y.y.y.",
"y.y.y.y.y.y.y.y.y.y.y.y.y.y.y.y.y.y.y.y.y.y.y.y.y.y.y.y.y.y.y.y.",
"y.y.y.y.y.y.y.y.y.y.y.y.y.y.y.y.y.y.y.y.y.y.y.y.y.y.y.y.y.y.y.y.",
"y.y.y.y.y.y.y.y.y.y.y.y.y.y.y.y.y.y.y.y.y.y.y.y.y.y.y.y.y.y.y.y.",
"y.y.y.y.y.y.y.y.y.y.y.y.y.y.y.y.y.y.y.y.y.y.y.y.y.y.y.y.y.y.y.y.",
"y.y.y.y.y.y.y.y.y.y.y.y.y.y.y.y.y.y.y.y.y.y.y.y.y.y.y.y.y.y.y.y.",
"y.y.y.y.y.y.y.y.y.y.y.y.y.y.y.y.y.y.y.y.y.y.y.y.y.y.y.y.y.y.y.y.",
"y.y.y.y.y.y.y.y.y.y.y.y.y.y.>X#X#X>Xy.y.y.y.y.y.y.y.y.y.y.y.y.y.",
"y.y.y.y.y.y.y.y.y.y.y.y.y.1XO.X.@.$.2Xy.y.y.y.y.y.y.y.y.y.y.y.y.",
"y.y.y.y.y.y.y.y.y.y.y.y.=X| !.!.I./.O.>Xy.y.y.y.y.y.y.y.y.y.y.y.",
"y.y.y.y.y.y.y.y.y.y.y.2X| !.I.C.@XI.R.  2Xy.y.y.y.y.y.y.y.y.y.y.",
"y.y.y.y.y.y.y.y.y.y.>X$./.OX&XZ.C.}.J.B.. <Xy.y.y.y.y.y.y.y.y.y.",
"y.y.y.y.y.y.y.y.y.y.=XX.I.%X*X$XoX_.S.m.f ,Xy.y.y.y.y.y.y.y.y.y.",
"y.y.y.y.y.y.y.y.y.2XO.R.J.V.+XXX}._.G.b.N.g 2Xy.y.y.y.y.y.y.y.y.",
"y.y.y.y.y.y.y.y.y.=X* R.J._.}.}.}._.l.d.k.d =Xy.y.y.y.y.y.y.y.y.",
"y.y.y.y.y.y.y.y.u.j * R.J._._.]._.S.x.h.k.- u -.G y.y.y.y.y.y.y.",
"y.y.y.y.y.y.y.b y 9 % R.J._._._.S.l.x.h.k.# , =.j y.y.y.y.y.y.y.",
"y.y.y.y.y.G j p.5., o R..X_._.S.l.x.a.h.M.# X 6.i.> G y.y.y.y.y.",
"y.y.y.y.y.b 7 6.4.6.e + G.J.P.b.h.a.h.h.# e 6.4.6.7 M y.y.y.y.y.",
"y.y.y.y.y.b 7 _ ` t.6.9 o & & % : - : # 2 6.t.e.&.7 b y.y.y.y.y.",
"y.y.y.y.y.b 7 _ ` w.t.6.p s Z S s s s p 6.e.w.e.&.7 M y.y.y.y.y.",
"y.y.y.y.y.b 7 U K :.:.2.<.&._ _ 3.3.3.<.` / / ` U 7 M y.y.y.y.y.",
"y.y.y.y.y.G A Q L 2.:.:./ / ~ ~ / :.:.:.:./ ~ ` E i C y.y.y.y.y.",
"y.y.y.y.q.q.G j , L K J ~ ~ / / ~ / J J J J / [ y M q.y.y.y.y.y.",
"y.y.y.y.q.q.q.q.j W R L [ [ [ [ _ [ L T L L [ *.M q.q.y.y.y.y.y.",
"y.y.y.y.q.q.q.q.q.b y , , , , , 9 , 2 , 2 9 y z q.q.q.y.y.y.y.y.",
"y.y.y.y.y.q.q.q.q.q.C D x x x x x x l x l x B q.q.q.q.y.y.y.y.y.",
"y.y.y.y.y.y.y.q.q.q.q.q.q.q.q.q.q.q.q.q.q.q.q.q.q.y.y.y.y.y.y.y.",
"y.y.y.y.y.y.y.y.y.y.y.y.y.y.y.y.y.y.y.y.y.y.y.y.y.y.y.y.y.y.y.y."
};
