/* XPM */
static char *b6e5f3cb059b4ccda393a20d1e1d09ad3aCV3cvRH5vD4sgv[] = {
/* columns rows colors chars-per-pixel */
"32 32 17 1 ",
"  c #6B4B5B",
". c #754C60",
"X c #90625D",
"o c #AA7959",
"O c #67835C",
"+ c #78A158",
"@ c #8DB15D",
"# c #B68962",
"$ c #B7906F",
"% c #9BB367",
"& c #C49A6C",
"* c #A4C263",
"= c #B3C372",
"- c #C0D470",
"; c #DCB98A",
": c #E8CFA6",
"> c #F3E5C2",
/* pixels */
"==========---XXXXX-------------*",
"====%====XX;;;;;;;;;XX----------",
"-------XX;;;;+++++;;;;XX-*------",
"---XX;;;;++*@-***-@*++;;;;XX---*",
"--X;;;;+++-*@*@@@*@*-+++;;;;X---",
"--X&+@+-*+**@-***-@**+*-+@+&X---",
"---XO@+-*+-*@*@@@*@*-+*-+@*X----",
"----O@+-*+**@-***-@**+*-+@**----",
"----O@+-*+-*@ooooo@*-+*-+@*-----",
"----O@+-*oo::>>>>>::oo*-+@*-----",
"----O@+oo::>>;;;;;>>::oo+@*-----",
"---oo::>>;;;;XXXXX;;;;>>::oo----",
"--o::>>;;;;XXXXXXXXX;;;;>>::o---",
"--X;;;;XXXXXXXXXXXXXXXXX;;;;X---",
"--X;;XXoooooooooooooooooXX;;X---",
"----.&&&&&&&&&&&&&&&&&&&&& -----",
"--*-.ooooooooooooooooooooo.---*-",
"----.&&&&&&&&&&&&&&&&&&&&&.-----",
"----.&&..&&&&.....&&&&..&&.-----",
"----.&&XX.&&.XXXXX.&&.XX&&.-----",
"----.&&XX.&&.XXXXX.&&.XX&&.-----",
"----.oo;;ooo.XXXXX.ooo;;oo.-----",
"----.&&&&&&&.XXXXX.&&&&&&&.-----",
"----.&&&&&&&.ooooo.&&&&&&&.-----",
"----.........&&&&&........-----*",
"-----==&&$$$$&&&&&$$$$&&==------",
"-----==&&====&###&====&&==------",
"-----==&&====&###&====&&==------",
"------=&&====&&&&&====&&=-------",
"------------=&&&&&=---------*---",
"------------=&###&=-------------",
"-------------XXXXX--------------"
};
