/* XPM */
static char *_ea9cb3bb75342ccb667269b297bd253nD1GJDgaiBcUJ7zc[] = {
/* columns rows colors chars-per-pixel */
"32 32 9 1 ",
"  c #90625D",
". c #B68962",
"X c #9BB367",
"o c #C49A6C",
"O c #A4C263",
"+ c #B3C372",
"@ c #C0D470",
"# c #DCB98A",
"$ c #E8CFA6",
/* pixels */
"++++++++++@@@@@@@@@@@@@@@@@@@@@O",
"++++X+++++@@O@@O@@@@@@@@@@@@@@@@",
"@@@@@@@@@@@@@@@@@@@@@@@@@O@@@@@@",
"@@@@@@@@@@@@@@@@@@@@@@@@@@@@@@@O",
"@@@@@@@@@@@@@@@@@@@@@@@@@@@@@@@@",
"@@@@@@@@@@@@@@@@@@@@@@@@@@@@@@@@",
"@@@@@@@@@@@@@@@@@@@@O@@@@@@@@@@@",
"@@@@@@@O@@@@@@@@@@@@@@@@@@@O@@@@",
"@@@@@@@@@@@@@@@@@@@@@@@@@@@@@@@@",
"@@@@@@@@@@@@        @@@@@@@@@@@@",
"@@@@@@@@@@@@        @@@@@@@@@@@@",
"@@@@@@@@@@  ########  @@@@@@@@@@",
"@@@@@@@@@@  ########  @@@@@@@@@@",
"@@@@@@@@  ############  @@@@@@@@",
"@@@@@@@@  ############  @@@@@@@@",
"@@@@@@@@  $$########$$  @@@@@@@@",
"@@O@@@@@  $$########$$  @@@@@@O@",
"@@@@@@@@  ..$$$$$$$$..  @@@@@@@@",
"@@@@@@@@  ..$$$$$$$$..  @@@@@@@@",
"@@@@@@@@  ............  @@@@@@@@",
"@@@@@@@@  ............  @@@@@@@@",
"@@@@@@@@  ..oo..oooooo  @@@@@@@@",
"@@@@@@@@  ..oo..oooooo  @@@@@@@@",
"@@@@@O  oooooooooooooooo  @@@@@@",
"@@@@@@@@oooooooooooooooo@@@@@@@O",
"@@@@@@@@oooooooooooooooo@@@@@@@@",
"@@@@@@@@@@@@@@oooo@@@@@@@@@@@@@@",
"@@@@@@@@@@@@@@oooo@@@@@@@@@@@@@@",
"@@@@@@@@@@@@@@@@@@@@@@@@@@@@@@@@",
"@@@@@@@@@@@@@@@@@@@@@@@@@@@@O@@@",
"@@@@@@@@@@@@@@@@@@@@@@@@@@@@@@@@",
"@@@@@@@@@@@@@@@@@@@@@@@@@@@@@@@@"
};
